<svg width="24" height="24" viewBox="0 0 24 24" fill="none" xmlns="http://www.w3.org/2000/svg">
<path d="M18.9652 12.7911C20.6356 12.7963 21.9898 14.1745 22 15.8797V18.9019C21.9899 20.6086 20.6371 21.9897 18.9652 22H16.0046C14.3343 21.9896 12.9842 20.6071 12.9791 18.9019V15.8797C12.9791 14.1739 14.3337 12.7911 16.0046 12.7911H18.9652ZM6.25058 12.7911C6.56143 12.7571 6.86401 12.9073 7.02984 13.1778C7.19568 13.4484 7.19568 13.7918 7.02984 14.0624C6.86401 14.3329 6.56143 14.4831 6.25058 14.4491H5.0348C4.25932 14.4491 3.62923 15.0881 3.62413 15.8797V18.8641C3.64385 19.6493 4.26544 20.2797 5.0348 20.2947H8.01392C8.3872 20.2972 8.74604 20.1476 9.01086 19.879C9.27568 19.6104 9.4246 19.2451 9.42459 18.8641V14.3828L9.41193 14.2713C9.39793 13.9748 9.54013 13.6893 9.79039 13.5273C10.0719 13.345 10.4337 13.3558 10.7044 13.5544C10.9751 13.753 11.1004 14.0996 11.0209 14.4301V18.8925C11.0209 20.6035 9.66215 21.9905 7.98608 21.9905H5.0348C3.37322 21.9553 2.03447 20.5887 2 18.8925V15.8797C2 15.0589 2.32003 14.2719 2.88943 13.6924C3.45884 13.1129 4.23078 12.7886 5.0348 12.7911H6.25058ZM18.9652 14.4491H16.0046C15.2307 14.4491 14.6032 15.0896 14.6032 15.8797V18.9019C14.6008 19.2821 14.7476 19.6475 15.011 19.9163C15.2743 20.1852 15.6322 20.3351 16.0046 20.3326H18.9652C19.3376 20.3351 19.6955 20.1852 19.9589 19.9163C20.2222 19.6475 20.3691 19.2821 20.3666 18.9019V15.8797C20.3666 15.5003 20.2189 15.1364 19.9561 14.8681C19.6933 14.5998 19.3369 14.4491 18.9652 14.4491ZM18.9652 2C20.6232 2.04019 21.9564 3.40542 21.9907 5.09806V8.11085C22.0006 8.93001 21.6913 9.71963 21.1309 10.306C20.5704 10.8923 19.8048 11.2273 19.0023 11.2373H17.7773C17.3622 11.192 17.0475 10.8344 17.0475 10.4083C17.0475 9.98224 17.3622 9.6247 17.7773 9.57935H18.9652C19.341 9.57686 19.7002 9.42142 19.9633 9.14752C20.2264 8.87362 20.3715 8.50389 20.3666 8.12032V5.09806C20.3566 4.31222 19.735 3.67766 18.9652 3.66746H16.0046C15.2307 3.66746 14.6032 4.30796 14.6032 5.09806V9.61724L14.5936 9.72116C14.5306 10.129 14.1826 10.437 13.768 10.432C13.5522 10.4271 13.3473 10.3341 13.199 10.1739C13.0508 10.0137 12.9716 9.79958 12.9791 9.57935V5.09806C12.9767 4.27727 13.2943 3.48924 13.862 2.90797C14.4296 2.3267 15.2006 2 16.0046 2H18.9652ZM7.99536 2C9.66932 2.0052 11.0251 3.38921 11.0302 5.09806V8.12032C11.0302 8.94111 10.7101 9.72814 10.1407 10.3076C9.57132 10.8871 8.79939 11.2114 7.99536 11.2089H5.0348C3.36445 11.2037 2.01018 9.82547 2 8.12032V5.09806C2.01013 3.39135 3.36294 2.01034 5.0348 2H7.99536ZM7.99536 3.66746H5.0348C4.65833 3.65982 4.29469 3.80716 4.02582 4.07629C3.75696 4.34541 3.60549 4.71366 3.60557 5.09806V8.12032C3.59791 8.50962 3.74603 8.88529 4.01574 9.16062C4.28546 9.43595 4.65345 9.58716 5.0348 9.57935H7.99536C8.37112 9.57686 8.73038 9.42142 8.99346 9.14752C9.25654 8.87362 9.4017 8.50389 9.39675 8.12032V5.09806C9.39169 4.31011 8.76722 3.67262 7.99536 3.66746Z" fill="#200E32"/>
</svg>
