<svg width="14" height="14" viewBox="0 0 14 14" fill="none" xmlns="http://www.w3.org/2000/svg">
<path d="M13.6372 11.9289C14.1209 12.4131 14.1209 13.1662 13.6372 13.6503C13.3954 13.8924 13.0998 14 12.7774 14C12.4549 14 12.1593 13.8924 11.9175 13.6503L7 8.72815L2.08253 13.6503C1.84069 13.8924 1.54511 14 1.22265 14C0.900192 14 0.604607 13.8924 0.362764 13.6503C-0.120921 13.1662 -0.120921 12.4131 0.362764 11.9289L5.28023 7.00672L0.362764 2.08453C-0.120921 1.60038 -0.120921 0.847262 0.362764 0.363112C0.846449 -0.121037 1.59885 -0.121037 2.08253 0.363112L7 5.2853L11.9175 0.363112C12.4012 -0.121037 13.1536 -0.121037 13.6372 0.363112C14.1209 0.847262 14.1209 1.60038 13.6372 2.08453L8.71977 7.00672L13.6372 11.9289Z" fill="rgb(239 68 68)"/>
</svg>
