<svg width="14" height="14" viewBox="0 0 14 14" fill="none" xmlns="http://www.w3.org/2000/svg">
<path fill-rule="evenodd" clip-rule="evenodd" d="M14 7.77667V6.17323L12.06 5.53185L11.61 4.43951L12.49 2.59556L11.36 1.46314L9.55 2.37509L8.46 1.92412L7.77 0H6.17L5.54 1.94417L4.43 2.39513L2.59 1.51324L1.46 2.64567L2.37 4.45956L1.92 5.5519L0 6.23336V7.82677L1.94 8.46815L2.39 9.56049L1.51 11.4044L2.64 12.5369L4.45 11.6249L5.54 12.0759L6.23 14H7.82L8.45 12.0558L9.56 11.6049L11.4 12.4868L12.53 11.3543L11.61 9.54044L12.08 8.4481L14 7.75662V7.77667ZM7 10.0115C5.34 10.0115 4 8.66858 4 7.00501C4 5.34145 5.34 3.99857 7 3.99857C8.66 3.99857 10 5.34145 10 7.00501C10 8.66858 8.66 10.0115 7 10.0115Z" fill="black"/>
</svg>
